<?xml version="1.0" encoding="UTF-8" standalone="no"?>
<svg
   id="Layer_1"
   data-name="Layer 1"
   viewBox="0 0 255.33 111.12"
   version="1.1"
   sodipodi:docname="dreamToApp-dark.svg"
   width="255.33"
   height="111.12"
   inkscape:version="1.3.2 (091e20e, 2023-11-25, custom)"
   xmlns:inkscape="http://www.inkscape.org/namespaces/inkscape"
   xmlns:sodipodi="http://sodipodi.sourceforge.net/DTD/sodipodi-0.dtd"
   xmlns="http://www.w3.org/2000/svg"
   xmlns:svg="http://www.w3.org/2000/svg">
  <sodipodi:namedview
     id="namedview13"
     pagecolor="#ffffff"
     bordercolor="#000000"
     borderopacity="0.25"
     inkscape:showpageshadow="2"
     inkscape:pageopacity="0.0"
     inkscape:pagecheckerboard="0"
     inkscape:deskcolor="#d1d1d1"
     showgrid="false"
     inkscape:zoom="1.9724409"
     inkscape:cx="128.01397"
     inkscape:cy="59.063872"
     inkscape:window-width="1366"
     inkscape:window-height="697"
     inkscape:window-x="-8"
     inkscape:window-y="74"
     inkscape:window-maximized="1"
     inkscape:current-layer="Layer_1" />
  <defs
     id="defs1">
    <style
       id="style1">
      .cls-1, .cls-2 {
        fill: #ffffff;
      }

      .cls-2 {
        fill-rule: evenodd;
      }
    </style>
  </defs>
  <g
     id="g10"
     transform="translate(-1.62,-67.78)">
    <path
       class="cls-1"
       d="M 99.49,116.54 V 75.97 h 15.67 c 2.72,0 5.24,0.46 7.56,1.37 2.32,0.92 4.3,2.23 5.95,3.94 1.65,1.71 2.94,3.79 3.87,6.23 0.94,2.44 1.4,5.21 1.4,8.31 0,3.1 -0.42,5.92 -1.25,8.46 -0.83,2.55 -2.02,4.72 -3.57,6.54 -1.55,1.81 -3.4,3.22 -5.55,4.22 -2.16,1 -4.53,1.5 -7.13,1.5 H 99.48 Z m 15.28,-6.91 c 3.71,0 6.39,-1.15 8.06,-3.45 1.67,-2.3 2.5,-5.75 2.5,-10.36 0,-2.28 -0.2,-4.24 -0.61,-5.87 -0.41,-1.63 -1.07,-2.96 -1.99,-4 -0.92,-1.04 -2.09,-1.79 -3.51,-2.26 -1.43,-0.47 -3.16,-0.7 -5.19,-0.7 h -6.29 v 26.64 z"
       id="path1" />
    <path
       class="cls-1"
       d="M 136.46,116.54 V 86.48 h 7.45 v 3.58 c 0.65,-1.03 1.33,-1.83 2.05,-2.4 0.71,-0.57 1.44,-1.02 2.2,-1.32 0.75,-0.31 1.52,-0.5 2.29,-0.59 0.77,-0.08 1.57,-0.12 2.38,-0.12 h 1.04 v 8.19 c -0.73,-0.12 -1.47,-0.18 -2.2,-0.18 -4.85,0 -7.27,2.42 -7.27,7.27 v 15.64 h -7.94 z"
       id="path2" />
    <path
       class="cls-1"
       d="m 161.38,103.59 c 0.12,2.28 0.78,4.09 1.99,5.44 1.2,1.34 2.78,2.02 4.73,2.02 1.3,0 2.45,-0.29 3.45,-0.89 1,-0.6 1.64,-1.42 1.93,-2.47 h 8.19 c -0.94,3.1 -2.57,5.48 -4.89,7.15 -2.32,1.67 -5.09,2.51 -8.31,2.51 -10.02,0 -15.03,-5.46 -15.03,-16.37 0,-2.32 0.33,-4.42 0.98,-6.29 0.65,-1.87 1.6,-3.48 2.84,-4.83 1.24,-1.34 2.76,-2.37 4.55,-3.08 1.79,-0.71 3.85,-1.07 6.17,-1.07 4.64,0 8.16,1.49 10.54,4.46 2.38,2.97 3.57,7.45 3.57,13.44 h -20.71 z m 12.53,-5.01 c -0.04,-1.1 -0.23,-2.07 -0.58,-2.9 -0.35,-0.84 -0.8,-1.53 -1.38,-2.08 -0.58,-0.55 -1.22,-0.96 -1.95,-1.22 -0.73,-0.26 -1.49,-0.4 -2.26,-0.4 -1.59,0 -2.96,0.58 -4.12,1.74 -1.16,1.16 -1.82,2.78 -1.99,4.86 z"
       id="path3" />
    <path
       class="cls-1"
       d="m 203.35,116.54 c -0.24,-0.77 -0.4,-1.67 -0.48,-2.69 -0.94,1.06 -2.18,1.91 -3.73,2.54 -1.55,0.63 -3.34,0.95 -5.38,0.95 -3.46,0 -6,-0.76 -7.61,-2.29 -1.61,-1.53 -2.41,-3.51 -2.41,-5.96 0,-2.16 0.35,-3.88 1.04,-5.16 0.69,-1.28 1.65,-2.29 2.87,-3.02 1.22,-0.73 2.68,-1.27 4.37,-1.62 1.69,-0.34 3.53,-0.66 5.53,-0.95 1.99,-0.28 3.34,-0.66 4.03,-1.13 0.69,-0.47 1.04,-1.23 1.04,-2.29 0,-0.98 -0.46,-1.74 -1.38,-2.29 -0.92,-0.55 -2.15,-0.82 -3.7,-0.82 -1.83,0 -3.15,0.41 -3.94,1.22 -0.79,0.82 -1.29,1.89 -1.5,3.24 h -7.39 c 0.04,-1.55 0.29,-2.97 0.76,-4.28 0.47,-1.3 1.22,-2.42 2.26,-3.36 1.04,-0.94 2.39,-1.66 4.06,-2.17 1.67,-0.51 3.7,-0.76 6.09,-0.76 2.39,0 4.35,0.26 6,0.79 1.64,0.53 2.96,1.29 3.96,2.29 0.99,1 1.71,2.24 2.16,3.73 0.45,1.49 0.67,3.17 0.67,5.04 v 19 h -7.33 z m -0.54,-14.73 c -0.41,0.41 -1,0.73 -1.77,0.98 -0.77,0.24 -1.89,0.51 -3.36,0.79 -2.28,0.45 -3.85,1.02 -4.7,1.71 -0.86,0.69 -1.28,1.69 -1.28,2.99 0,2.24 1.28,3.36 3.85,3.36 1.02,0 1.97,-0.17 2.84,-0.52 0.88,-0.34 1.63,-0.81 2.26,-1.41 0.63,-0.59 1.14,-1.28 1.53,-2.08 0.39,-0.79 0.58,-1.64 0.58,-2.54 l 0.06,-3.3 z"
       id="path4" />
    <path
       class="cls-1"
       d="M 249.18,116.54 V 98.33 c 0,-1.83 -0.43,-3.32 -1.28,-4.46 -0.86,-1.14 -2,-1.71 -3.42,-1.71 -1.42,0 -2.68,0.61 -3.63,1.83 -0.96,1.22 -1.44,2.75 -1.44,4.58 v 17.96 h -7.94 V 98.45 c 0,-1.22 -0.08,-2.22 -0.24,-2.99 -0.16,-0.77 -0.44,-1.38 -0.83,-1.83 -0.39,-0.45 -0.89,-0.76 -1.5,-0.95 -0.61,-0.18 -1.34,-0.27 -2.2,-0.27 -3.22,0 -4.83,1.95 -4.83,5.86 v 18.27 h -7.94 V 86.48 h 7.45 v 4.39 c 1.02,-2.01 2.24,-3.39 3.67,-4.13 1.43,-0.74 3.14,-1.11 5.13,-1.11 1.02,0 1.92,0.08 2.72,0.25 0.8,0.17 1.51,0.44 2.14,0.83 0.63,0.39 1.23,0.89 1.8,1.51 0.57,0.62 1.14,1.36 1.71,2.22 0.81,-1.68 1.89,-2.91 3.24,-3.67 1.34,-0.76 2.97,-1.14 4.89,-1.14 1.51,0 2.89,0.26 4.15,0.77 1.26,0.51 2.34,1.22 3.24,2.14 0.9,0.92 1.6,1.99 2.11,3.21 0.51,1.22 0.76,2.53 0.76,3.92 v 20.87 z"
       id="path5" />
    <path
       class="cls-1"
       d="m 118.02,148.66 h 7.97 v 9.3 c 0,1.73 -0.25,3.38 -0.76,4.95 -0.51,1.57 -1.3,2.97 -2.38,4.18 -1.08,1.22 -2.45,2.18 -4.11,2.89 -1.66,0.71 -3.63,1.06 -5.93,1.06 -2.3,0 -4.42,-0.35 -6.1,-1.06 -1.68,-0.71 -3.06,-1.66 -4.14,-2.86 -1.08,-1.2 -1.87,-2.59 -2.35,-4.19 -0.49,-1.59 -0.73,-3.28 -0.73,-5.05 v -29.22 h 8.57 v 8.83 h 17.93 v 6.11 h -17.93 v 13.42 c 0,2.08 0.38,3.69 1.15,4.82 0.77,1.13 2.03,1.69 3.79,1.69 1.76,0 2.98,-0.55 3.79,-1.66 0.81,-1.11 1.22,-2.68 1.22,-4.72 v -8.5 z"
       id="path6" />
    <path
       class="cls-1"
       d="m 145.22,171.04 c -2.65,0 -5.02,-0.42 -7.09,-1.26 -2.08,-0.84 -3.83,-2.02 -5.27,-3.53 -1.44,-1.51 -2.53,-3.33 -3.28,-5.46 -0.75,-2.13 -1.13,-4.46 -1.13,-6.99 0,-2.53 0.39,-4.93 1.16,-7.05 0.77,-2.13 1.89,-3.95 3.35,-5.46 1.46,-1.51 3.22,-2.67 5.27,-3.49 2.06,-0.82 4.39,-1.23 6.99,-1.23 2.6,0 4.86,0.41 6.89,1.23 2.03,0.82 3.77,1.97 5.2,3.46 1.44,1.49 2.54,3.29 3.31,5.42 0.77,2.13 1.16,4.5 1.16,7.12 0,2.62 -0.39,4.98 -1.16,7.09 -0.77,2.11 -1.88,3.92 -3.31,5.42 -1.44,1.51 -3.18,2.67 -5.24,3.49 -2.06,0.82 -4.34,1.23 -6.86,1.23 z m 0.04,-7.24 c 5.27,0 7.9,-3.32 7.9,-9.96 0,-6.64 -2.63,-9.9 -7.9,-9.9 -5.27,0 -7.9,3.3 -7.9,9.9 0,6.6 2.63,9.96 7.9,9.96 z"
       id="path7" />
    <path
       class="cls-1"
       d="m 188.72,165.28 c -0.23,-0.74 -0.39,-1.6 -0.46,-2.57 -0.9,1.02 -2.09,1.82 -3.57,2.43 -1.48,0.6 -3.2,0.91 -5.14,0.91 -3.31,0 -5.74,-0.73 -7.28,-2.19 -1.54,-1.46 -2.31,-3.36 -2.31,-5.7 0,-2.06 0.33,-3.71 0.99,-4.94 0.66,-1.23 1.58,-2.19 2.75,-2.89 1.17,-0.7 2.56,-1.22 4.18,-1.55 1.62,-0.33 3.38,-0.63 5.29,-0.91 1.91,-0.27 3.19,-0.63 3.86,-1.08 0.67,-0.45 0.99,-1.18 0.99,-2.19 0,-0.93 -0.44,-1.67 -1.32,-2.19 -0.88,-0.52 -2.06,-0.79 -3.54,-0.79 -1.75,0 -3.01,0.39 -3.77,1.17 -0.76,0.78 -1.24,1.81 -1.43,3.1 h -7.07 c 0.04,-1.48 0.28,-2.84 0.73,-4.09 0.45,-1.25 1.17,-2.32 2.16,-3.21 0.99,-0.9 2.29,-1.59 3.88,-2.07 1.59,-0.49 3.54,-0.73 5.83,-0.73 2.29,0 4.17,0.25 5.74,0.76 1.57,0.51 2.84,1.24 3.79,2.19 0.95,0.95 1.64,2.14 2.07,3.57 0.43,1.42 0.64,3.03 0.64,4.82 v 18.18 h -7.02 z m -0.53,-14.09 c -0.39,0.39 -0.96,0.7 -1.69,0.93 -0.74,0.23 -1.81,0.49 -3.22,0.76 -2.18,0.43 -3.68,0.97 -4.5,1.64 -0.82,0.66 -1.23,1.62 -1.23,2.86 0,2.14 1.23,3.22 3.68,3.22 0.97,0 1.88,-0.17 2.72,-0.5 0.84,-0.33 1.56,-0.78 2.16,-1.35 0.6,-0.56 1.09,-1.23 1.46,-1.99 0.37,-0.76 0.56,-1.57 0.56,-2.43 l 0.06,-3.16 z"
       id="path8" />
    <path
       class="cls-1"
       d="m 198.83,178.9 v -42.38 h 7.31 l 0.06,3.51 c 1.75,-2.84 4.42,-4.27 8.01,-4.27 1.79,0 3.46,0.35 5,1.05 1.54,0.7 2.85,1.72 3.95,3.04 1.09,1.33 1.95,2.94 2.57,4.85 0.62,1.91 0.94,4.07 0.94,6.49 0,2.18 -0.26,4.18 -0.79,5.99 -0.53,1.81 -1.3,3.38 -2.31,4.7 -1.01,1.33 -2.25,2.35 -3.71,3.07 -1.46,0.72 -3.13,1.08 -5,1.08 -3.55,0 -6.39,-1.5 -8.53,-4.5 v 17.36 h -7.48 z m 13.56,-19.35 c 4.36,0 6.55,-2.96 6.55,-8.89 0,-2.57 -0.6,-4.67 -1.81,-6.28 -1.21,-1.62 -2.77,-2.42 -4.68,-2.42 -1.91,0 -3.36,0.76 -4.59,2.28 -1.23,1.52 -1.84,3.51 -1.84,5.96 0,6.23 2.12,9.35 6.37,9.35 z"
       id="path9" />
    <path
       class="cls-1"
       d="m 229.11,178.9 v -42.38 h 7.31 l 0.06,3.51 c 1.75,-2.84 4.42,-4.27 8.01,-4.27 1.79,0 3.46,0.35 5,1.05 1.54,0.7 2.85,1.72 3.95,3.04 1.09,1.33 1.95,2.94 2.57,4.85 0.62,1.91 0.94,4.07 0.94,6.49 0,2.18 -0.26,4.18 -0.79,5.99 -0.53,1.81 -1.3,3.38 -2.31,4.7 -1.01,1.33 -2.25,2.35 -3.71,3.07 -1.46,0.72 -3.13,1.08 -5,1.08 -3.55,0 -6.39,-1.5 -8.53,-4.5 v 17.36 h -7.48 z m 13.56,-19.35 c 4.36,0 6.55,-2.96 6.55,-8.89 0,-2.57 -0.6,-4.67 -1.81,-6.28 -1.21,-1.62 -2.77,-2.42 -4.68,-2.42 -1.91,0 -3.36,0.76 -4.59,2.28 -1.23,1.52 -1.84,3.51 -1.84,5.96 0,6.23 2.12,9.35 6.37,9.35 z"
       id="path10" />
  </g>
  <g
     id="Layer_1-2"
     data-name="Layer_1"
     transform="translate(-1.62,-67.78)">
    <g
       id="_1737930587280"
       data-name=" 1737930587280">
      <path
         class="cls-2"
         d="m 35.28,67.78 c 28.42,0 51.46,23.04 51.46,51.46 0,28.42 -23.04,51.46 -51.46,51.46 -0.51,0 -1.02,0 -1.53,-0.02 V 154.6 c 0.51,0.02 1.02,0.04 1.53,0.04 19.55,0 35.39,-15.85 35.39,-35.39 0,-19.54 -15.85,-35.39 -35.39,-35.39 -0.51,0 -1.02,0.01 -1.53,0.04 V 67.82 c 0.51,-0.01 1.02,-0.02 1.53,-0.02 v 0 z"
         id="path11" />
      <path
         class="cls-2"
         d="m 35.28,100.13 c 10.43,0 18.88,8.45 18.88,18.88 0,10.43 -8.45,18.88 -18.88,18.88 -0.52,0 -1.03,-0.02 -1.53,-0.06 V 100.2 c 0.51,-0.04 1.02,-0.06 1.53,-0.06 v 0 z"
         id="path12" />
    </g>
    <path
       class="cls-2"
       d="M 19.69,67.93 H 1.62 v 43.24 H 19.69 Z M 1.62,125.32 v 45.23 h 18.07 v -45.23 z"
       id="path13" />
  </g>
</svg> 