<?xml version="1.0" encoding="UTF-8"?>
<svg id="Layer_1" xmlns="http://www.w3.org/2000/svg" version="1.1" viewBox="0 0 259 254">
  <!-- Generator: Adobe Illustrator 29.5.0, SVG Export Plug-In . SVG Version: 2.1.0 Build 137)  -->
  <defs>
    <style>
      .st0 {
        fill: #0d3ad7;
      }

      .st1, .st2 {
        fill: #fff;
      }

      .st2 {
        fill-rule: evenodd;
      }
    </style>
  </defs>
  <rect class="st0" width="259" height="254"/>
  <g>
    <path class="st1" d="M116.83,117.77v-20.51h7.92c1.38,0,2.65.23,3.82.69,1.17.46,2.17,1.13,3.01,1.99.83.86,1.48,1.91,1.96,3.15.47,1.24.71,2.64.71,4.2s-.21,2.99-.63,4.28c-.42,1.29-1.02,2.39-1.8,3.3-.78.92-1.72,1.63-2.81,2.13-1.09.51-2.29.76-3.61.76h-8.57ZM124.55,114.28c1.87,0,3.23-.58,4.08-1.74.84-1.16,1.27-2.91,1.27-5.23,0-1.15-.1-2.14-.31-2.96-.21-.82-.54-1.5-1-2.02s-1.06-.91-1.78-1.14c-.72-.24-1.6-.36-2.62-.36h-3.18v13.46h3.55Z"/>
    <path class="st1" d="M135.52,117.77v-15.19h3.77v1.81c.33-.52.67-.92,1.03-1.21.36-.29.73-.51,1.11-.67.38-.16.77-.25,1.16-.3.39-.04.79-.06,1.2-.06h.52v4.14c-.37-.06-.74-.09-1.11-.09-2.45,0-3.67,1.23-3.67,3.67v7.91h-4.01Z"/>
    <path class="st1" d="M148.12,111.23c.06,1.15.4,2.07,1,2.75.61.68,1.41,1.02,2.39,1.02.66,0,1.24-.15,1.74-.45s.83-.72.97-1.25h4.14c-.47,1.56-1.3,2.77-2.47,3.61-1.17.84-2.57,1.27-4.2,1.27-5.06,0-7.6-2.76-7.6-8.28,0-1.17.16-2.23.49-3.18.33-.95.81-1.76,1.44-2.44.63-.68,1.39-1.2,2.3-1.56s1.95-.54,3.12-.54c2.35,0,4.12.75,5.33,2.25,1.2,1.5,1.81,3.77,1.81,6.79h-10.47ZM154.45,108.7c-.02-.56-.12-1.04-.29-1.47-.18-.42-.41-.77-.7-1.05s-.62-.48-.99-.62c-.37-.13-.75-.2-1.14-.2-.8,0-1.5.29-2.08.88-.59.59-.92,1.41-1,2.46h6.21Z"/>
    <path class="st1" d="M169.33,117.77c-.12-.39-.2-.84-.25-1.36-.47.54-1.1.96-1.88,1.28-.78.32-1.69.48-2.72.48-1.75,0-3.03-.39-3.84-1.16-.81-.77-1.22-1.78-1.22-3.01,0-1.09.17-1.96.52-2.61.35-.65.83-1.16,1.45-1.53.62-.37,1.35-.64,2.21-.82.85-.17,1.79-.33,2.79-.48,1.01-.14,1.69-.33,2.04-.57s.53-.62.53-1.16c0-.49-.23-.88-.7-1.16s-1.09-.42-1.87-.42c-.93,0-1.59.21-1.99.62-.4.41-.65.96-.76,1.64h-3.74c.02-.78.15-1.5.39-2.16.24-.66.62-1.22,1.14-1.7.52-.47,1.21-.84,2.05-1.1.84-.26,1.87-.39,3.08-.39s2.2.13,3.03.4c.83.27,1.5.65,2,1.16s.87,1.13,1.09,1.88c.23.75.34,1.6.34,2.55v9.6h-3.71ZM169.05,110.33c-.21.21-.5.37-.9.49-.39.12-.96.26-1.7.4-1.15.23-1.95.51-2.38.87-.43.35-.65.85-.65,1.51,0,1.13.65,1.7,1.95,1.7.51,0,.99-.09,1.44-.26.44-.17.82-.41,1.14-.71.32-.3.58-.65.77-1.05.2-.4.29-.83.29-1.28l.03-1.67Z"/>
    <path class="st1" d="M192.49,117.77v-9.2c0-.93-.22-1.68-.65-2.25-.43-.58-1.01-.86-1.73-.86s-1.35.31-1.84.93c-.48.62-.73,1.39-.73,2.32v9.08h-4.01v-9.14c0-.62-.04-1.12-.12-1.51-.08-.39-.22-.7-.42-.93-.2-.23-.45-.39-.76-.48-.31-.09-.68-.14-1.11-.14-1.63,0-2.44.99-2.44,2.96v9.23h-4.01v-15.19h3.77v2.22c.51-1.02,1.13-1.71,1.85-2.09s1.59-.56,2.59-.56c.51,0,.97.04,1.37.13s.76.22,1.08.42c.32.2.62.45.91.76.29.31.58.69.86,1.12.41-.85.96-1.47,1.64-1.85.68-.38,1.5-.58,2.47-.58.76,0,1.46.13,2.1.39.64.26,1.18.62,1.64,1.08.45.46.81,1.01,1.07,1.62.26.62.39,1.28.39,1.98v10.55h-3.92Z"/>
    <path class="st1" d="M126.2,134.01h4.03v4.7c0,.87-.13,1.71-.39,2.5-.26.8-.66,1.5-1.21,2.11-.55.62-1.24,1.1-2.08,1.46s-1.84.54-3,.54-2.23-.18-3.08-.54-1.55-.84-2.09-1.44c-.55-.6-.94-1.31-1.19-2.12-.25-.81-.37-1.66-.37-2.55v-14.77h4.33v4.46h9.06v3.09h-9.06v6.78c0,1.05.19,1.86.58,2.43s1.03.86,1.92.86,1.51-.28,1.92-.84.62-1.35.62-2.38v-4.3Z"/>
    <path class="st1" d="M139.95,145.32c-1.34,0-2.54-.21-3.59-.64-1.05-.43-1.94-1.02-2.66-1.78-.73-.76-1.28-1.68-1.66-2.76s-.57-2.25-.57-3.53.2-2.49.59-3.57c.39-1.08.95-2,1.69-2.76.74-.76,1.63-1.35,2.66-1.77,1.04-.41,2.22-.62,3.54-.62s2.46.21,3.48.62,1.9,1,2.63,1.75c.73.75,1.28,1.66,1.68,2.74.39,1.08.59,2.28.59,3.6s-.2,2.52-.59,3.58c-.39,1.07-.95,1.98-1.68,2.74-.73.76-1.61,1.35-2.65,1.77-1.04.41-2.2.62-3.47.62ZM139.96,141.66c2.66,0,3.99-1.68,3.99-5.04s-1.33-5-3.99-5-4,1.67-4,5,1.33,5.04,4,5.04Z"/>
    <path class="st1" d="M161.93,142.41c-.12-.37-.2-.81-.23-1.3-.45.51-1.05.92-1.8,1.23-.75.31-1.62.46-2.6.46-1.67,0-2.9-.37-3.68-1.11-.78-.74-1.17-1.7-1.17-2.88,0-1.04.17-1.88.5-2.5.33-.62.8-1.11,1.39-1.46.59-.35,1.3-.61,2.11-.78.82-.17,1.71-.32,2.67-.46.96-.14,1.61-.32,1.95-.55s.5-.6.5-1.11c0-.47-.22-.84-.66-1.11s-1.04-.4-1.79-.4c-.89,0-1.52.2-1.91.59-.38.39-.63.92-.72,1.57h-3.57c.02-.75.14-1.44.37-2.07.23-.63.59-1.17,1.09-1.62.5-.45,1.16-.8,1.96-1.05.81-.25,1.79-.37,2.95-.37s2.11.13,2.9.38c.79.26,1.43.63,1.91,1.11s.83,1.08,1.05,1.8c.22.72.32,1.53.32,2.44v9.19h-3.55ZM161.67,135.29c-.2.2-.48.35-.86.47-.37.12-.92.25-1.63.38-1.1.22-1.86.49-2.27.83-.41.33-.62.82-.62,1.45,0,1.08.62,1.63,1.86,1.63.49,0,.95-.08,1.37-.25.42-.17.79-.39,1.09-.68.31-.28.55-.62.74-1,.19-.38.28-.79.28-1.23l.03-1.6Z"/>
    <path class="st1" d="M167.05,149.3v-21.42h3.69l.03,1.77c.89-1.44,2.24-2.16,4.05-2.16.91,0,1.75.18,2.53.53s1.44.87,1.99,1.54c.55.67.98,1.49,1.3,2.45s.47,2.06.47,3.28c0,1.1-.13,2.11-.4,3.03-.27.92-.66,1.71-1.17,2.38-.51.67-1.14,1.19-1.88,1.55-.74.36-1.58.55-2.53.55-1.79,0-3.23-.76-4.31-2.27v8.78h-3.78ZM173.9,139.52c2.21,0,3.31-1.5,3.31-4.49,0-1.3-.31-2.36-.92-3.18-.61-.82-1.4-1.23-2.36-1.23s-1.7.38-2.32,1.15c-.62.77-.93,1.77-.93,3.01,0,3.15,1.07,4.73,3.22,4.73Z"/>
    <path class="st1" d="M182.35,149.3v-21.42h3.69l.03,1.77c.89-1.44,2.24-2.16,4.05-2.16.91,0,1.75.18,2.53.53s1.44.87,1.99,1.54c.55.67.98,1.49,1.3,2.45s.47,2.06.47,3.28c0,1.1-.13,2.11-.4,3.03-.27.92-.66,1.71-1.17,2.38-.51.67-1.14,1.19-1.88,1.55-.74.36-1.58.55-2.53.55-1.79,0-3.23-.76-4.31-2.27v8.78h-3.78ZM189.21,139.52c2.21,0,3.31-1.5,3.31-4.49,0-1.3-.31-2.36-.92-3.18-.61-.82-1.4-1.23-2.36-1.23s-1.7.38-2.32,1.15c-.62.77-.93,1.77-.93,3.01,0,3.15,1.07,4.73,3.22,4.73Z"/>
  </g>
  <g id="Layer_x5F_1">
    <g id="_1737930587280">
      <path class="st2" d="M84.38,93.13c14.37,0,26.01,11.65,26.01,26.01s-11.65,26.01-26.01,26.01c-.26,0-.52,0-.77-.01v-8.13c.26.01.51.02.77.02,9.88,0,17.89-8.01,17.89-17.89s-8.01-17.89-17.89-17.89c-.26,0-.52,0-.77.02v-8.13c.26,0,.52-.01.77-.01h0Z"/>
      <path class="st2" d="M84.38,109.48c5.27,0,9.54,4.27,9.54,9.54s-4.27,9.54-9.54,9.54c-.26,0-.52-.01-.77-.03v-19.02c.26-.02.51-.03.77-.03h0Z"/>
    </g>
    <path class="st2" d="M76.5,93.2h-9.14v21.85h9.14v-21.85ZM67.36,122.21v22.86h9.14v-22.86h-9.14Z"/>
  </g>
</svg>